<svg width="26" height="23" viewBox="0 0 26 23" fill="none" xmlns="http://www.w3.org/2000/svg">
<path d="M0.027625 11.6748C0.31525 17.6362 6.01494 22.4138 13 22.4138C19.9851 22.4138 25.6847 17.6362 25.9724 11.6748C25.9895 11.6373 25.9988 11.5974 26 11.5571C26 11.5319 25.9894 11.5102 25.9837 11.4871C25.9862 11.3932 26 11.3015 26 11.2069C26 5.02769 20.1679 0 13 0C5.83213 0 0 5.02769 0 11.2069C0 11.3015 0.0138125 11.3932 0.01625 11.4871C0.0105625 11.5102 0 11.5319 0 11.5571C0 11.5991 0.0121875 11.6377 0.027625 11.6748ZM20.2483 15.9292C19.1443 15.5341 17.9969 15.2359 16.8236 15.039C16.952 14.0212 17.0276 12.9643 17.0511 11.908H21.0974C21.0234 13.3467 20.7269 14.7049 20.2483 15.9292ZM21.9091 11.9073H25.1461C25.0028 13.8144 24.2543 15.6508 22.9824 17.2159C22.3505 16.8326 21.6828 16.4952 20.9861 16.2073C21.5101 14.8982 21.8327 13.4455 21.9091 11.9073ZM10.0661 15.6098C11.0366 15.4778 12.0175 15.4108 13 15.4095C13.9945 15.4095 14.9768 15.4809 15.9331 15.6098C15.3693 19.3466 14.1375 21.7134 13 21.7134C11.8625 21.7134 10.6307 19.3466 10.0661 15.6098ZM11.3003 21.478C9.06506 20.8602 7.17438 19.0468 6.03363 16.5862C7.07852 16.2095 8.16457 15.9239 9.2755 15.7338C9.64844 18.1825 10.3301 20.316 11.3003 21.478ZM9.97262 7.50092C10.9742 7.6354 11.9863 7.70354 13 7.70474C14.0137 7.70354 15.0258 7.6354 16.0274 7.50092C16.1671 8.63561 16.25 9.87398 16.25 11.2069H9.75C9.75 9.87398 9.83288 8.63561 9.97262 7.50092ZM16.2378 11.9073C16.2184 12.9114 16.1479 13.9142 16.0266 14.9129C15.0252 14.7783 14.0134 14.7102 13 14.7091C11.9863 14.7102 10.9742 14.7784 9.97262 14.9129C9.85089 13.9142 9.78041 12.9114 9.76138 11.9073H16.2378ZM16.7253 15.7338C17.8661 15.9313 18.954 16.2185 19.9672 16.5862C18.8264 19.0468 16.9358 20.8602 14.7006 21.478C15.6699 20.316 16.3516 18.1825 16.7253 15.7338ZM17.0625 11.2069C17.0625 9.92091 16.9796 8.6181 16.8236 7.37554C18.0261 7.17101 19.1766 6.87123 20.2483 6.48529C20.8041 7.90647 21.125 9.50765 21.125 11.2069H17.0625ZM16.7253 6.68001C16.3516 4.2313 15.6707 2.09709 14.6997 0.935776C16.9349 1.55356 18.8256 3.36697 19.9664 5.82759C18.9219 6.20465 17.8361 6.49023 16.7253 6.68001ZM15.9339 6.80399C14.9768 6.93287 13.9945 7.00431 13 7.00431C12.0055 7.00431 11.0232 6.93287 10.0661 6.80399C10.6307 3.06719 11.8625 0.700431 13 0.700431C14.1375 0.700431 15.3693 3.06719 15.9339 6.80399ZM9.27469 6.68001C8.16378 6.4898 7.07775 6.20424 6.03281 5.82759C7.17356 3.36697 9.06425 1.55356 11.2994 0.935776C10.3301 2.09779 9.64844 4.2313 9.27469 6.68001ZM9.17637 7.37554C9.01768 8.64808 8.93794 9.92702 8.9375 11.2069H4.875C4.875 9.50765 5.19594 7.90647 5.75169 6.48459C6.82338 6.87123 7.97387 7.17031 9.17637 7.37554ZM8.94888 11.9073C8.97244 12.9636 9.048 14.0205 9.17637 15.039C7.97387 15.2435 6.82338 15.5433 5.75169 15.9292C5.27313 14.7049 4.97656 13.3467 4.90263 11.9073H8.94888ZM5.01312 16.2073C4.31684 16.4955 3.6494 16.8328 3.01763 17.2159C1.74555 15.6508 0.997053 13.8144 0.853938 11.9073H4.09094C4.16731 13.4455 4.48987 14.8982 5.01312 16.2073ZM3.50431 17.7769C4.07295 17.4317 4.67258 17.1261 5.2975 16.8629C6.11325 18.6034 7.28731 20.0484 8.69863 21.0255C6.66258 20.3606 4.86939 19.2391 3.50431 17.7769ZM17.3014 21.0248C18.7135 20.0484 19.8867 18.6027 20.7025 16.8622C21.3444 17.1311 21.9391 17.4407 22.4957 17.7762C21.1311 19.2389 19.3377 20.3604 17.3014 21.0248ZM21.9375 11.2069C21.9375 9.40889 21.5898 7.71385 20.9869 6.20652C21.7019 5.91094 22.3665 5.57123 22.9832 5.1979C24.4182 6.95742 25.1881 9.056 25.1875 11.2069H21.9375ZM22.4965 4.63685C21.9399 4.97236 21.3452 5.28195 20.7033 5.55092C19.8876 3.81035 18.7135 2.36466 17.3022 1.38825C19.338 2.05353 21.1311 3.17495 22.4965 4.63685ZM8.69863 1.38895C7.2865 2.36536 6.11325 3.81105 5.2975 5.55162C4.67263 5.28809 4.07301 4.98221 3.50431 4.63685C4.86922 3.17466 6.66249 2.05337 8.69863 1.38895ZM3.01763 5.1979C3.64929 5.58111 4.31674 5.91847 5.01312 6.20652C4.37768 7.81653 4.05645 9.50626 4.0625 11.2069H0.8125C0.8125 8.97252 1.63231 6.90275 3.01763 5.1979Z" fill="#EA433A"/>
</svg>
